<svg width="97" height="17" viewBox="0 0 97 17" fill="none" xmlns="http://www.w3.org/2000/svg">
<path d="M0.439453 15.7655V0.802734H5.7401C11.0544 0.802734 13.7118 3.23374 13.7118 8.09631C13.7118 10.4269 12.9866 12.2876 11.5361 13.679C10.0857 15.0704 8.15351 15.7661 5.7401 15.7661H0.439453V15.7655ZM3.8096 3.54697V13.0321H5.47907C6.93971 13.0321 8.08598 12.594 8.91731 11.7173C9.74864 10.8405 10.164 9.64774 10.164 8.1383C10.164 6.71227 9.75204 5.59096 8.92752 4.77325C8.103 3.95611 6.94652 3.54697 5.45807 3.54697H3.8096Z" fill="#2B2F7E"/>
<path d="M18.2679 3.39058C17.7112 3.39058 17.2556 3.22545 16.9009 2.89518C16.5463 2.56492 16.3687 2.15975 16.3687 1.67968C16.3687 1.18599 16.5463 0.782529 16.9009 0.469291C17.2556 0.156053 17.7112 0 18.2679 0C18.8314 0 19.2888 0.15662 19.64 0.469291C19.9913 0.782529 20.1672 1.18599 20.1672 1.67968C20.1672 2.18075 19.9913 2.59103 19.64 2.91107C19.2882 3.23112 18.8314 3.39058 18.2679 3.39058ZM19.8954 15.7657H16.5979V5.08104H19.8954V15.7657Z" fill="#2B2F7E"/>
<path d="M27.0913 10.6117V15.7665H23.7212V0.803711H29.0008C32.771 0.803711 34.6562 2.39317 34.6562 5.57208C34.6562 7.07472 34.1154 8.29022 33.0338 9.21916C31.9522 10.1481 30.5069 10.6123 28.6984 10.6123H27.0913V10.6117ZM27.0913 3.39076V8.05472H28.4164C30.2112 8.05472 31.1084 7.26879 31.1084 5.69635C31.1084 4.1591 30.2112 3.39019 28.4164 3.39019H27.0913V3.39076Z" fill="#2B2F7E"/>
<path d="M54.6241 15.7655H51.2953V6.8127C51.2953 5.84575 51.3373 4.77779 51.4207 3.60939H51.3373C51.1631 4.52754 51.0071 5.18863 50.868 5.59209L47.3623 15.7655H44.6078L41.0391 5.69651C40.9415 5.42526 40.7848 4.72956 40.5698 3.60939H40.4756C40.5658 5.08422 40.6112 6.37804 40.6112 7.49083V15.7655H37.5747V0.802734H42.5099L45.5674 9.67214C45.8108 10.3815 45.9884 11.0948 46.0997 11.8115H46.1621C46.3499 10.9835 46.548 10.264 46.7568 9.6517L49.8143 0.803302H54.6246V15.7655H54.6241Z" fill="#2B2F7E"/>
<path d="M67.3184 15.7659H64.1985V14.2321H64.1565C63.4398 15.4288 62.3792 16.027 60.9742 16.027C59.9374 16.027 59.122 15.733 58.5273 15.1451C57.9326 14.5572 57.6353 13.773 57.6353 12.7924C57.6353 10.7195 58.8627 9.52328 61.3186 9.20323L64.2195 8.81735C64.2195 7.64895 63.5862 7.06447 62.3202 7.06447C61.0474 7.06447 59.837 7.44353 58.689 8.20166V5.71845C59.1481 5.48182 59.7757 5.27355 60.5724 5.09253C61.3686 4.91151 62.0938 4.82129 62.7481 4.82129C65.7947 4.82129 67.3184 6.34151 67.3184 9.38084V15.7659ZM64.2195 11.4254V10.7053L62.2788 10.9555C61.2074 11.0946 60.6717 11.5781 60.6717 12.406C60.6717 12.7816 60.8022 13.0892 61.0633 13.3292C61.3243 13.5693 61.6773 13.689 62.1222 13.689C62.7413 13.689 63.2457 13.4751 63.635 13.0472C64.0243 12.6199 64.2195 12.0791 64.2195 11.4254Z" fill="#2B2F7E"/>
<path d="M77.6239 8.05488C77.2272 7.83925 76.7647 7.73143 76.2359 7.73143C75.5192 7.73143 74.9591 7.99416 74.5562 8.51906C74.1528 9.04453 73.9508 9.75896 73.9508 10.6635V15.7661H70.6533V5.08139H73.9508V7.0641H73.9928C74.5142 5.61707 75.4534 4.89355 76.8101 4.89355C77.158 4.89355 77.4292 4.93555 77.6239 5.01897V8.05488Z" fill="#2B2F7E"/>
<path d="M86.3433 15.6411C85.8564 15.8982 85.1227 16.027 84.1415 16.027C81.8178 16.027 80.6562 14.82 80.6562 12.406V7.51225H78.9243V5.08125H80.6562V2.77509L83.9429 1.83594V5.08125H86.3427V7.51225H83.9429V11.8318C83.9429 12.9451 84.3844 13.5012 85.2679 13.5012C85.6158 13.5012 85.9739 13.4002 86.3427 13.1988V15.6411H86.3433Z" fill="#2B2F7E"/>
<path d="M88.2281 15.4849V12.8138C88.7706 13.1407 89.3114 13.3841 89.8505 13.5441C90.3896 13.7042 90.8991 13.7842 91.3792 13.7842C91.9637 13.7842 92.4245 13.7042 92.7616 13.5441C93.0986 13.3841 93.2677 13.1407 93.2677 12.8138C93.2677 12.605 93.1911 12.4313 93.0379 12.2923C92.8847 12.1533 92.6883 12.0313 92.4483 11.9269C92.2083 11.8225 91.9455 11.7288 91.6607 11.6454C91.3752 11.562 91.1006 11.4678 90.8362 11.364C90.4117 11.2039 90.0377 11.032 89.7143 10.8476C89.3908 10.6631 89.1196 10.4492 88.9005 10.2058C88.6815 9.96232 88.5147 9.68087 88.3995 9.36082C88.2849 9.04077 88.2275 8.6617 88.2275 8.22362C88.2275 7.62552 88.3581 7.11083 88.6191 6.67956C88.8801 6.24829 89.228 5.89532 89.6626 5.62067C90.0973 5.34602 90.595 5.14401 91.1545 5.0152C91.7146 4.88638 92.2968 4.82227 92.9023 4.82227C93.375 4.82227 93.855 4.85858 94.3425 4.93178C94.8294 5.00498 95.3094 5.1111 95.7827 5.25013V7.79632C95.3651 7.55288 94.9185 7.37017 94.4418 7.24873C93.9651 7.12729 93.4975 7.06601 93.0385 7.06601C92.8228 7.06601 92.6191 7.0853 92.4279 7.12332C92.2366 7.16134 92.0681 7.21695 91.9217 7.29015C91.7753 7.36336 91.6607 7.45698 91.5773 7.57161C91.4938 7.68624 91.4519 7.81675 91.4519 7.96315C91.4519 8.15779 91.5143 8.3252 91.6397 8.46423C91.7651 8.60325 91.9285 8.72356 92.13 8.824C92.3314 8.92501 92.5561 9.01524 92.803 9.09525C93.0498 9.17526 93.295 9.25697 93.5384 9.34038C93.9765 9.4936 94.3731 9.66044 94.7278 9.84146C95.0825 10.0225 95.3866 10.2347 95.6408 10.4781C95.8945 10.7216 96.0897 11.007 96.2253 11.3339C96.3609 11.6607 96.429 12.0506 96.429 12.5023C96.429 13.1356 96.2917 13.6764 96.0171 14.1247C95.7424 14.5735 95.377 14.9384 94.9213 15.2204C94.4656 15.5019 93.9407 15.7073 93.3455 15.8361C92.7502 15.9649 92.1334 16.0291 91.4933 16.0291C90.3186 16.0274 89.2297 15.8463 88.2281 15.4849Z" fill="#2B2F7E"/>
</svg>
