<svg width="22" height="18" viewBox="0 0 22 18" fill="none" xmlns="http://www.w3.org/2000/svg">
<path fill-rule="evenodd" clip-rule="evenodd" d="M18.2374 0.562402C18.5374 0.262402 19.0374 0.262402 19.3374 0.562402C19.6374 0.862402 19.6374 1.3624 19.3374 1.6624L3.5374 17.4624C3.4374 17.5624 3.2374 17.6624 3.0374 17.6624C2.8374 17.6624 2.6374 17.5624 2.5374 17.4624C2.2374 17.1624 2.2374 16.6624 2.5374 16.3624L4.5374 14.3624C3.0374 13.0624 1.8374 11.3624 1.0374 9.2624C0.937402 9.0624 0.937402 8.8624 1.0374 8.6624C2.0374 6.3624 3.4374 4.3624 5.1374 3.0624C8.3374 0.462402 12.7374 0.262403 16.1374 2.6624L18.2374 0.562402ZM6.1374 4.1624C4.6374 5.3624 3.4374 6.9624 2.5374 8.9624C3.3374 10.7624 4.3374 12.2624 5.6374 13.2624L7.7374 11.1624C7.2374 10.4624 7.0374 9.7624 7.0374 8.9624C7.0374 6.8624 8.7374 5.0624 10.9374 5.0624C11.7374 5.0624 12.4374 5.3624 13.1374 5.6624L15.1374 3.6624C12.3374 1.8624 8.8374 2.0624 6.1374 4.1624ZM8.5374 8.9624C8.5374 9.3624 8.6374 9.7624 8.8374 10.0624L12.0374 6.8624C11.7374 6.6624 11.3374 6.5624 10.9374 6.5624C9.6374 6.5624 8.5374 7.6624 8.5374 8.9624ZM20.8374 8.6624C20.3374 7.4624 19.7374 6.3624 18.9374 5.3624C18.7374 5.0624 18.2374 4.9624 17.9374 5.2624C17.6374 5.4624 17.5374 5.9624 17.8374 6.3624C18.4374 7.1624 18.9374 8.0624 19.4374 9.0624C17.5374 13.1624 14.4374 15.6624 11.0374 15.6624C10.2374 15.6624 9.5374 15.5624 8.7374 15.2624C8.3374 15.1624 7.9374 15.3624 7.8374 15.7624C7.7374 16.1624 7.9374 16.5624 8.3374 16.6624C9.2374 16.9624 10.1374 17.1624 11.1374 17.1624C15.2374 17.1624 18.9374 14.2624 21.0374 9.3624C20.9936 9.23087 20.9689 9.11856 20.9467 9.01704L20.9467 9.01702C20.9182 8.88701 20.8936 8.77471 20.8374 8.6624ZM13.3374 9.4624C13.1374 10.4624 12.3374 11.2624 11.4374 11.3624C11.0374 11.4624 10.7374 11.8624 10.8374 12.2624C10.9374 12.6624 11.2374 12.8624 11.5374 12.8624H11.6374C13.2374 12.5624 14.5374 11.2624 14.7374 9.7624C14.8374 9.3624 14.5374 8.9624 14.1374 8.8624C13.7374 8.7624 13.3374 9.0624 13.3374 9.4624Z" fill="#9E9E9E"/>
</svg>
