<svg width="25" height="17" viewBox="0 0 25 17" fill="none" xmlns="http://www.w3.org/2000/svg">
<path d="M24.0517 16.0345H0.42198C0.188954 16.0345 0 15.8455 0 15.6125V0.42198C0 0.188954 0.188954 0 0.42198 0H24.0518C24.2848 0 24.4738 0.188954 24.4738 0.42198V15.6125C24.4737 15.8456 24.2848 16.0345 24.0517 16.0345Z" fill="#41479B"/>
<path d="M24.4737 3.79736H0V12.2365H24.4737V3.79736Z" fill="#FF4B55"/>
<path d="M17.8206 11.2167V10.6183H17.6212V10.2195H17.4217V9.82068H17.2223V9.42184H16.624V8.2253H16.6239L16.8234 8.02588V7.42761H16.624V7.02877H16.4246V6.4305H16.2252V6.03166H16.0258V5.63281H15.8264V5.43339H15.4275V5.63281H15.228V6.03166H15.0286V6.4305H14.8292V7.02877H14.6298V7.42761H13.4332V6.82935H13.2339V6.23108H13.0344V5.63281H12.835V5.23397H12.6356V4.83512H12.4362V4.6357H12.3365V4.43628H12.137V4.6357H12.0373V4.83512H11.8379V5.23397H11.6385V5.63281H11.4391V6.23108H11.2396V6.82935H11.0402V7.42761H9.84367V7.02877H9.64425V6.4305H9.44483V6.03166H9.24541V5.63281H9.04598V5.43339H8.64714V5.63281H8.44772V6.03166H8.24829V6.4305H8.04887V7.02877H7.84945V7.42761H7.65003V8.02588L7.84935 8.2253H7.84945V9.42184H7.25123V9.82068H7.05181V10.2195H6.85234V10.6183H6.65291V11.2167H6.45349V11.8149H18.0199V11.2167H17.8206Z" fill="#F5F5F5"/>
</svg>
