<svg width="692" height="791" viewBox="0 0 692 791" fill="none" xmlns="http://www.w3.org/2000/svg">
<path d="M2.01547 356.49C2.01547 356.49 -5.79259 331.464 18.5632 309.404L315.468 137.509C320.107 134.706 331.489 128.68 347.163 128.797C362.321 128.909 373.324 134.701 377.973 137.509L670.287 305.722C670.287 305.722 694.409 322.684 691.771 356.486C691.771 356.486 688.441 377.421 657.303 397.07L559.979 341.572L375.677 235.405C371.335 232.768 360.453 226.958 345.44 227.151C330.778 227.34 320.238 233.159 315.927 235.864L35.6509 397.646C35.6509 397.646 7.06483 379.217 2.01547 356.49Z" fill="#27296D"/>
<path d="M2.01547 229.608C2.01547 229.608 -5.79259 204.581 18.5632 182.521L315.468 10.6263C315.468 10.6263 345.8 -12.3524 377.973 10.6263L670.287 178.844C670.287 178.844 694.409 195.806 691.771 229.608C691.771 229.608 688.441 250.543 657.303 270.192L559.979 214.694L375.677 108.526C371.209 105.894 360.457 100.372 345.719 100.493C331.003 100.61 320.359 106.285 315.927 108.99L35.6509 270.763C35.6509 270.763 7.06483 252.339 2.01547 229.608Z" fill="#27296D"/>
<path d="M2.01547 482.32C2.01547 482.32 -5.79259 457.294 18.5632 435.233L315.468 263.339C320.251 260.531 331.624 254.721 347.186 254.838C362.208 254.95 373.184 260.526 377.973 263.339L670.287 431.556C670.287 431.556 694.409 448.518 691.771 482.32C691.771 482.32 688.441 503.256 657.303 522.904L559.979 467.406L375.677 361.239C371.542 358.602 360.939 352.625 346.155 352.625C330.877 352.625 320.004 359.016 315.931 361.698L35.6509 523.48C35.6509 523.48 7.06483 505.051 2.01547 482.32Z" fill="#27296D"/>
<path d="M1.24144 227.358C1.24144 227.358 2.2765 249.418 39.1611 271.137L311.48 427.568C316.53 430.62 328.694 437.046 345.476 437.078C362.406 437.109 374.687 430.615 379.728 427.568L655.494 269.413C660.156 266.574 665.467 262.771 670.79 257.695C681.969 247.033 688.171 235.576 691.573 227.695C691.384 262.168 691.19 296.645 691.001 331.117C689.696 334.907 687.761 339.389 684.84 344.087C679.197 353.16 672.379 359.024 667.564 362.485L376.289 531.044C376.289 531.044 346.646 550.693 316.309 531.044L30.1965 365.927C30.1965 365.927 0.323373 345.59 1.24144 321.689V227.358Z" fill="#5BC7D8"/>
<path d="M1.25928 354.762C2.17734 358.38 3.80647 363.344 6.80818 368.754C7.53274 370.063 10.5569 375.387 16.6639 381.809C20.9887 386.359 28.3827 393.051 39.602 398.784C132.817 446.429 219.178 506.657 311.921 555.216C317.074 557.912 329.373 564.361 345.917 564.388C360.795 564.415 372.792 559.239 380.169 555.216L655.935 397.061C660.575 394.271 665.903 390.477 671.231 385.342C682.464 374.51 688.414 362.795 691.537 355.01C691.505 389.595 691.469 424.18 691.438 458.765C691.438 458.765 682.82 482.896 667.996 490.132L376.721 658.692C376.721 658.692 347.078 678.34 316.741 658.692L30.6374 493.579C30.6374 493.579 0.764243 473.242 1.68231 449.341C1.5383 417.816 1.39879 386.287 1.25928 354.762Z" fill="#ED1C24"/>
<path d="M1.10179 478.746C1.10179 478.746 2.13686 500.807 39.0215 522.525L311.341 678.956C316.534 682.012 328.838 688.312 345.696 688.254C362.289 688.195 374.395 682.012 379.593 678.956L655.359 520.802C660.035 517.935 665.336 514.128 670.656 509.083C681.83 498.489 688.166 487.135 691.713 479.196C691.429 513.633 691.146 548.069 690.862 582.505C690.862 582.505 682.244 606.636 667.42 613.873L376.145 782.432C371.357 785.164 360.07 790.749 344.778 790.398C331.057 790.087 320.935 785.155 316.17 782.432L30.0569 617.32C30.0569 617.32 0.183724 596.983 1.10179 573.082V478.746Z" fill="#2B2F7E"/>
</svg>
