<svg width="96" height="6" viewBox="0 0 96 6" fill="none" xmlns="http://www.w3.org/2000/svg">
<path d="M0 0.298285C0.25758 0.255183 0.59418 0.21875 1.02314 0.21875C1.5501 0.21875 1.93647 0.34138 2.18123 0.562018C2.40802 0.758026 2.54297 1.0582 2.54297 1.4261C2.54297 1.80016 2.43265 2.09417 2.22433 2.30865C1.94263 2.60882 1.48288 2.76224 0.962079 2.76224C0.803015 2.76224 0.655753 2.75607 0.533121 2.72529V4.38007H0V0.298285ZM0.533121 2.29017C0.649596 2.32096 0.796859 2.33328 0.974394 2.33328C1.61783 2.33328 2.00985 2.02079 2.00985 1.45073C2.00985 0.905292 1.62399 0.642066 1.03545 0.642066C0.802503 0.642066 0.624967 0.66053 0.533121 0.685159V2.29017Z" fill="#2B2F7E"/>
<path d="M3.41946 0.0292969H3.95874V1.88006H3.97105C4.05674 1.72664 4.19169 1.59221 4.35691 1.49985C4.51649 1.40801 4.70634 1.34644 4.90851 1.34644C5.30668 1.34644 5.94397 1.5917 5.94397 2.61483V4.37991H5.40469V2.6764C5.40469 2.19819 5.22715 1.79386 4.71814 1.79386C4.36872 1.79386 4.09317 2.03913 3.99517 2.33314C3.96438 2.40651 3.95823 2.48656 3.95823 2.59072V4.37991H3.41895V0.0292969H3.41946Z" fill="#2B2F7E"/>
<path d="M9.71203 2.87267C9.71203 3.9697 8.95212 4.4474 8.2353 4.4474C7.43229 4.4474 6.81348 3.85938 6.81348 2.92141C6.81348 1.92854 7.46307 1.34668 8.28405 1.34668C9.13581 1.34668 9.71203 1.96549 9.71203 2.87267ZM7.35891 2.90295C7.35891 3.55254 7.73297 4.04256 8.25993 4.04256C8.77458 4.04256 9.16095 3.55819 9.16095 2.89063C9.16095 2.3883 8.90953 1.751 8.27225 1.751C7.63496 1.751 7.35891 2.33904 7.35891 2.90295Z" fill="#2B2F7E"/>
<path d="M10.6013 2.21742C10.6013 1.91109 10.5951 1.65968 10.5767 1.41441H11.0549L11.0857 1.90442H11.098C11.2452 1.62272 11.588 1.34668 12.0785 1.34668C12.489 1.34668 13.1263 1.59195 13.1263 2.60892V4.38015H12.587V2.67049C12.587 2.19228 12.4095 1.79411 11.9005 1.79411C11.5449 1.79411 11.2694 2.04553 11.1775 2.34569C11.1529 2.41291 11.1406 2.50526 11.1406 2.59711V4.38015H10.6013V2.21742Z" fill="#2B2F7E"/>
<path d="M14.5103 2.99482C14.5226 3.72395 14.9885 4.02412 15.5277 4.02412C15.9136 4.02412 16.1466 3.9569 16.3487 3.8707L16.4406 4.25656C16.2507 4.34225 15.9259 4.44026 15.4539 4.44026C14.5405 4.44026 13.9956 3.83991 13.9956 2.94505C13.9956 2.0502 14.5226 1.3457 15.3866 1.3457C16.3549 1.3457 16.6125 2.19746 16.6125 2.74289C16.6125 2.85321 16.6001 2.93889 16.594 2.99431H14.5103V2.99482ZM16.0917 2.60897C16.0978 2.2657 15.9505 1.73259 15.3441 1.73259C14.7986 1.73259 14.5595 2.23491 14.5169 2.60897H16.0917Z" fill="#2B2F7E"/>
<path d="M18.9411 3.7303C19.1803 3.87756 19.5297 3.99968 19.8971 3.99968C20.4425 3.99968 20.7611 3.71183 20.7611 3.29467C20.7611 2.90881 20.5405 2.68817 19.9828 2.4737C19.3085 2.23459 18.8919 1.88516 18.8919 1.30329C18.8919 0.659851 19.425 0.181641 20.228 0.181641C20.6508 0.181641 20.9572 0.279641 21.1408 0.383803L20.9936 0.818918C20.8586 0.745544 20.5831 0.622907 20.209 0.622907C19.6451 0.622907 19.4307 0.960023 19.4307 1.24172C19.4307 1.62758 19.6821 1.81794 20.2516 2.03858C20.9505 2.30796 21.3056 2.64507 21.3056 3.25208C21.3056 3.88936 20.8335 4.44096 19.8591 4.44096C19.4609 4.44096 19.0258 4.32448 18.8052 4.17721L18.9411 3.7303Z" fill="#2B2F7E"/>
<path d="M22.563 2.99482C22.5753 3.72395 23.0412 4.02412 23.5805 4.02412C23.9663 4.02412 24.1993 3.9569 24.4015 3.8707L24.4933 4.25656C24.3035 4.34225 23.9787 4.44026 23.5066 4.44026C22.5933 4.44026 22.0483 3.83991 22.0483 2.94505C22.0483 2.0502 22.5753 1.3457 23.4394 1.3457C24.4076 1.3457 24.6652 2.19746 24.6652 2.74289C24.6652 2.85321 24.6529 2.93889 24.6467 2.99431H22.563V2.99482ZM24.1439 2.60897C24.15 2.2657 24.0028 1.73259 23.3963 1.73259C22.8508 1.73259 22.6117 2.23491 22.5691 2.60897H24.1439Z" fill="#2B2F7E"/>
<path d="M25.5412 2.33904C25.5412 1.98961 25.5351 1.68944 25.5166 1.4139H25.9887L26.0071 1.99627H26.0318C26.1667 1.5981 26.4915 1.34668 26.8528 1.34668C26.9138 1.34668 26.9569 1.35283 27.0062 1.36514V1.87364C26.9513 1.86133 26.8959 1.85517 26.8225 1.85517C26.4428 1.85517 26.1729 2.14302 26.0995 2.54787C26.0872 2.62124 26.0749 2.70745 26.0749 2.7993V4.38018H25.5417V2.33904H25.5412Z" fill="#2B2F7E"/>
<path d="M28.1147 1.41406L28.6971 3.08114C28.7951 3.35052 28.8746 3.59578 28.9362 3.84104H28.9547C29.0219 3.59578 29.1081 3.35104 29.2061 3.08114L29.7823 1.41406H30.3462L29.182 4.3798H28.6673L27.5396 1.41406H28.1147Z" fill="#2B2F7E"/>
<path d="M31.6632 0.581258C31.6693 0.764951 31.5344 0.912211 31.3199 0.912211C31.1301 0.912211 30.9951 0.764951 30.9951 0.581258C30.9951 0.391407 31.1362 0.244141 31.3322 0.244141C31.5344 0.244141 31.6632 0.391407 31.6632 0.581258ZM31.0623 4.38083V1.41506H31.6016V4.38083H31.0623Z" fill="#2B2F7E"/>
<path d="M34.8187 4.26956C34.6776 4.34293 34.3651 4.44094 33.9669 4.44094C33.0721 4.44094 32.4902 3.83445 32.4902 2.92727C32.4902 2.01394 33.1152 1.35254 34.0834 1.35254C34.402 1.35254 34.6837 1.43207 34.831 1.50596L34.7084 1.92261C34.5796 1.84923 34.3774 1.7815 34.0834 1.7815C33.403 1.7815 33.0357 2.28384 33.0357 2.90316C33.0357 3.5897 33.4769 4.01249 34.0649 4.01249C34.3713 4.01249 34.5734 3.93296 34.7268 3.86523L34.8187 4.26956Z" fill="#2B2F7E"/>
<path d="M35.9214 2.99482C35.9337 3.72395 36.3996 4.02412 36.9389 4.02412C37.3248 4.02412 37.5578 3.9569 37.7599 3.8707L37.8518 4.25656C37.6619 4.34225 37.3371 4.44026 36.865 4.44026C35.9517 4.44026 35.4067 3.83991 35.4067 2.94505C35.4067 2.0502 35.9337 1.3457 36.7978 1.3457C37.7661 1.3457 38.0237 2.19746 38.0237 2.74289C38.0237 2.85321 38.0114 2.93889 38.0052 2.99431H35.9214V2.99482ZM37.5023 2.60897C37.5085 2.2657 37.3612 1.73259 36.7547 1.73259C36.2093 1.73259 35.9702 2.23491 35.9276 2.60897H37.5023Z" fill="#2B2F7E"/>
<path d="M38.8263 3.82858C38.9859 3.93274 39.2676 4.04307 39.537 4.04307C39.929 4.04307 40.1132 3.84706 40.1132 3.60179C40.1132 3.34421 39.9598 3.20363 39.5616 3.05636C39.0285 2.86651 38.7771 2.57198 38.7771 2.21691C38.7771 1.73869 39.1629 1.34668 39.8007 1.34668C40.1009 1.34668 40.3646 1.43237 40.5298 1.53038L40.3949 1.92239C40.2784 1.84901 40.0639 1.751 39.7884 1.751C39.4698 1.751 39.2922 1.9347 39.2922 2.15534C39.2922 2.40061 39.4698 2.51093 39.8561 2.65768C40.3708 2.85368 40.6345 3.11126 40.6345 3.55254C40.6345 4.07334 40.2302 4.44125 39.5252 4.44125C39.2004 4.44125 38.9002 4.3617 38.6919 4.23907L38.8263 3.82858Z" fill="#2B2F7E"/>
<path d="M43.5942 0.25V4.38052H43.061V0.25H43.5942Z" fill="#2B2F7E"/>
<path d="M44.7761 2.21742C44.7761 1.91109 44.7699 1.65968 44.7515 1.41441H45.2297L45.2605 1.90442H45.2728C45.42 1.62272 45.7628 1.34668 46.2533 1.34668C46.6638 1.34668 47.301 1.59195 47.301 2.60892V4.38015H46.7618V2.67049C46.7618 2.19228 46.5843 1.79411 46.0753 1.79411C45.7197 1.79411 45.4441 2.04553 45.3523 2.34569C45.3277 2.41291 45.3154 2.50526 45.3154 2.59711V4.38015H44.7761V2.21742Z" fill="#2B2F7E"/>
<path d="M50.4451 0.703592H49.189V0.25H52.2471V0.703592H50.9849V4.38052H50.4456V0.703592H50.4451Z" fill="#2B2F7E"/>
<path d="M52.8531 0.0292969H53.3923V1.88006H53.4046C53.4903 1.72664 53.6253 1.59221 53.7905 1.49985C53.9501 1.40801 54.1399 1.34644 54.3421 1.34644C54.7403 1.34644 55.3776 1.5917 55.3776 2.61483V4.37991H54.8383V2.6764C54.8383 2.19819 54.6607 1.79386 54.1517 1.79386C53.8023 1.79386 53.5268 2.03913 53.4288 2.33314C53.398 2.40651 53.3918 2.48656 53.3918 2.59072V4.37991H52.8525V0.0292969H52.8531Z" fill="#2B2F7E"/>
<path d="M56.7632 2.99482C56.7755 3.72395 57.2414 4.02412 57.7807 4.02412C58.1665 4.02412 58.3995 3.9569 58.6016 3.8707L58.6935 4.25656C58.5036 4.34225 58.1788 4.44026 57.7068 4.44026C56.794 4.44026 56.2485 3.83991 56.2485 2.94505C56.2485 2.0502 56.7755 1.3457 57.6396 1.3457C58.6078 1.3457 58.8654 2.19746 58.8654 2.74289C58.8654 2.85321 58.8531 2.93889 58.8469 2.99431H56.7632V2.99482ZM58.3441 2.60897C58.3502 2.2657 58.203 1.73259 57.5965 1.73259C57.051 1.73259 56.8119 2.23491 56.7693 2.60897H58.3441Z" fill="#2B2F7E"/>
<path d="M61.2671 0.304435C61.5919 0.255177 61.9777 0.21875 62.4005 0.21875C63.1666 0.21875 63.712 0.396287 64.0738 0.7334C64.4417 1.07051 64.6561 1.54821 64.6561 2.21628C64.6561 2.8905 64.4478 3.4421 64.062 3.8218C63.6761 4.20766 63.0383 4.41598 62.2358 4.41598C61.8561 4.41598 61.5375 4.3975 61.2676 4.36671V0.304435H61.2671ZM61.7997 3.95725C61.9346 3.98188 62.1306 3.98804 62.339 3.98804C63.4786 3.98804 64.0979 3.35077 64.0979 2.23527C64.104 1.26088 63.5525 0.642065 62.4252 0.642065C62.1491 0.642065 61.9408 0.666685 61.8002 0.697472V3.95725H61.7997Z" fill="#2B2F7E"/>
<path d="M66.1388 0.581258C66.145 0.764951 66.01 0.912211 65.7955 0.912211C65.6057 0.912211 65.4707 0.764951 65.4707 0.581258C65.4707 0.391407 65.6118 0.244141 65.8079 0.244141C66.01 0.244141 66.1388 0.391407 66.1388 0.581258ZM65.5384 4.38083V1.41506H66.0778V4.38083H65.5384Z" fill="#2B2F7E"/>
<path d="M69.7357 1.41441C69.7233 1.62889 69.711 1.86799 69.711 2.22922V3.95121C69.711 4.63159 69.5761 5.04823 69.2882 5.30529C69.0003 5.57467 68.5837 5.66088 68.2096 5.66088C67.854 5.66088 67.462 5.57519 67.2229 5.41562L67.3578 5.00513C67.5539 5.12776 67.8602 5.23808 68.2281 5.23808C68.7797 5.23808 69.1841 4.95022 69.1841 4.20263V3.87168H69.1717C69.0065 4.14773 68.6879 4.36785 68.2281 4.36785C67.4928 4.36785 66.9658 3.74288 66.9658 2.9214C66.9658 1.91622 67.6216 1.34668 68.302 1.34668C68.8167 1.34668 69.0989 1.61606 69.2272 1.86133H69.2395L69.2641 1.4139H69.7357V1.41441ZM69.1779 2.5848C69.1779 2.49295 69.1717 2.41343 69.1471 2.33955C69.0491 2.02706 68.7854 1.76948 68.3933 1.76948C67.8787 1.76948 67.5108 2.2046 67.5108 2.89114C67.5108 3.47351 67.8048 3.95736 68.3872 3.95736C68.7181 3.95736 69.0183 3.74904 69.1348 3.40577C69.1656 3.31392 69.1779 3.20977 69.1779 3.11792V2.5848Z" fill="#2B2F7E"/>
<path d="M71.378 0.581258C71.3841 0.764951 71.2492 0.912211 71.0347 0.912211C70.8449 0.912211 70.71 0.764951 70.71 0.581258C70.71 0.391407 70.8511 0.244141 71.047 0.244141C71.2492 0.244141 71.378 0.391407 71.378 0.581258ZM70.7772 4.38083V1.41506H71.3164V4.38083H70.7772Z" fill="#2B2F7E"/>
<path d="M73.0688 0.5625V1.41427H73.841V1.82476H73.0688V3.42412C73.0688 3.79202 73.1729 4.00034 73.4731 4.00034C73.6142 4.00034 73.7184 3.98187 73.7856 3.9634L73.8102 4.36773C73.706 4.41083 73.5408 4.44111 73.332 4.44111C73.0806 4.44111 72.8784 4.36157 72.7496 4.21431C72.5962 4.05473 72.5413 3.79151 72.5413 3.44208V1.82424H72.0815V1.41376H72.5413V0.703092L73.0688 0.5625Z" fill="#2B2F7E"/>
<path d="M76.2988 4.38068L76.2557 4.00663H76.2372C76.072 4.23958 75.7533 4.4479 75.33 4.4479C74.7297 4.4479 74.4229 4.0251 74.4229 3.59615C74.4229 2.87934 75.0601 2.48681 76.2059 2.49297V2.4319C76.2059 2.18663 76.1387 1.74536 75.5317 1.74536C75.2561 1.74536 74.9678 1.83106 74.7594 1.966L74.6368 1.61041C74.8821 1.45083 75.2372 1.34668 75.6112 1.34668C76.5184 1.34668 76.739 1.96548 76.739 2.56017V3.66952C76.739 3.9271 76.7513 4.178 76.7883 4.38016H76.2988V4.38068ZM76.2192 2.86701C75.6312 2.8547 74.9632 2.95886 74.9632 3.53508C74.9632 3.8845 75.1961 4.04972 75.4716 4.04972C75.8575 4.04972 76.1028 3.80446 76.1885 3.55355C76.2069 3.49814 76.2192 3.43707 76.2192 3.38217V2.86701Z" fill="#2B2F7E"/>
<path d="M77.8184 0.0292969H78.3577V4.38044H77.8184V0.0292969Z" fill="#2B2F7E"/>
<path d="M81.4526 4.38102L80.4048 0.250514H80.9687L81.4587 2.34039C81.5814 2.85504 81.6917 3.36969 81.7651 3.76837H81.7774C81.8446 3.35789 81.9734 2.86736 82.1145 2.33424L82.6661 0.250514H83.2238L83.7262 2.34604C83.8427 2.83606 83.953 3.32659 84.014 3.76171H84.0264C84.1121 3.30812 84.2285 2.84889 84.3573 2.33373L84.9028 0.25H85.4482L84.2778 4.3805H83.72L83.1992 2.22957C83.0704 1.70261 82.9847 1.29828 82.9298 0.881123H82.9175C82.8441 1.29161 82.7523 1.69594 82.5989 2.22957L82.0103 4.3805H81.4526V4.38102Z" fill="#2B2F7E"/>
<path d="M88.6339 2.87267C88.6339 3.9697 87.874 4.4474 87.1572 4.4474C86.3542 4.4474 85.7354 3.85938 85.7354 2.92141C85.7354 1.92854 86.385 1.34668 87.2059 1.34668C88.0577 1.34668 88.6339 1.96549 88.6339 2.87267ZM86.2808 2.90295C86.2808 3.55254 86.6549 4.04256 87.1818 4.04256C87.6965 4.04256 88.0829 3.55819 88.0829 2.89063C88.0829 2.3883 87.8314 1.751 87.1941 1.751C86.5569 1.751 86.2808 2.33904 86.2808 2.90295Z" fill="#2B2F7E"/>
<path d="M89.5227 2.33904C89.5227 1.98961 89.5165 1.68944 89.498 1.4139H89.9701L89.9886 1.99627H90.0132C90.1482 1.5981 90.473 1.34668 90.8342 1.34668C90.8953 1.34668 90.9384 1.35283 90.9876 1.36514V1.87364C90.9322 1.86133 90.8773 1.85517 90.8039 1.85517C90.4237 1.85517 90.1543 2.14302 90.081 2.54787C90.0686 2.62124 90.0563 2.70745 90.0563 2.7993V4.38018H89.5232V2.33904H89.5227Z" fill="#2B2F7E"/>
<path d="M91.7598 0.0292969H92.299V4.38044H91.7598V0.0292969Z" fill="#2B2F7E"/>
<path d="M95.9756 0.0292969V3.61437C95.9756 3.87811 95.9818 4.17827 96.0003 4.38043H95.5159L95.4913 3.8658H95.479C95.3138 4.19675 94.952 4.44817 94.4676 4.44817C93.7508 4.44817 93.1993 3.84168 93.1993 2.94067C93.1931 1.95396 93.8057 1.34747 94.5292 1.34747C94.9828 1.34747 95.2891 1.56194 95.4241 1.80104H95.4364V0.0298105H95.9756V0.0292969ZM95.4364 2.62151C95.4364 2.5543 95.4302 2.46193 95.4117 2.39471C95.3322 2.05144 95.0377 1.76975 94.6334 1.76975C94.0756 1.76975 93.7447 2.25977 93.7447 2.91552C93.7447 3.51586 94.0387 4.01254 94.6211 4.01254C94.9828 4.01254 95.3137 3.77343 95.4117 3.3691C95.4302 3.29573 95.4364 3.22184 95.4364 3.13615V2.62151Z" fill="#2B2F7E"/>
</svg>
