<svg width="24" height="24" viewBox="0 0 24 24" fill="none" xmlns="http://www.w3.org/2000/svg">
<path d="M21.9603 11.7527C21.1762 9.54011 19.8149 7.62663 18.0447 6.24879C16.2745 4.87095 14.1731 4.08914 12 4C9.82695 4.08914 7.72547 4.87095 5.9553 6.24879C4.18512 7.62663 2.82385 9.54011 2.03972 11.7527C1.98676 11.9125 1.98676 12.0875 2.03972 12.2473C2.82385 14.4599 4.18512 16.3734 5.9553 17.7512C7.72547 19.1291 9.82695 19.9109 12 20C14.1731 19.9109 16.2745 19.1291 18.0447 17.7512C19.8149 16.3734 21.1762 14.4599 21.9603 12.2473C22.0132 12.0875 22.0132 11.9125 21.9603 11.7527V11.7527ZM12 18.5455C8.46657 18.5455 4.73313 15.6873 3.37976 12C4.73313 8.31273 8.46657 5.45455 12 5.45455C15.5334 5.45455 19.2669 8.31273 20.6202 12C19.2669 15.6873 15.5334 18.5455 12 18.5455Z" fill="#9E9E9E"/>
<path d="M12 8C11.2089 8 10.4355 8.2346 9.77772 8.67412C9.11992 9.11365 8.60723 9.73836 8.30448 10.4693C8.00173 11.2002 7.92252 12.0044 8.07686 12.7804C8.2312 13.5563 8.61216 14.269 9.17157 14.8284C9.73098 15.3878 10.4437 15.7688 11.2196 15.9231C11.9956 16.0775 12.7998 15.9983 13.5307 15.6955C14.2616 15.3928 14.8864 14.8801 15.3259 14.2223C15.7654 13.5645 16 12.7911 16 12C16 10.9391 15.5786 9.92172 14.8284 9.17157C14.0783 8.42143 13.0609 8 12 8ZM12 14.6667C11.4726 14.6667 10.957 14.5103 10.5185 14.2173C10.0799 13.9242 9.73816 13.5078 9.53632 13.0205C9.33449 12.5332 9.28168 11.997 9.38457 11.4798C9.48747 10.9625 9.74144 10.4873 10.1144 10.1144C10.4873 9.74144 10.9625 9.48747 11.4798 9.38457C11.997 9.28168 12.5332 9.33449 13.0205 9.53632C13.5078 9.73815 13.9242 10.0799 14.2173 10.5185C14.5103 10.957 14.6667 11.4726 14.6667 12C14.6667 12.7072 14.3857 13.3855 13.8856 13.8856C13.3855 14.3857 12.7072 14.6667 12 14.6667Z" fill="#9E9E9E"/>
</svg>
